<svg xmlns="http://www.w3.org/2000/svg" width="19" height="19" viewBox="0 0 19 19" fill="none">
<g clip-path="url(#clip0_3_170)">
<path d="M16.5857 13.6715L16.5857 15.1667C16.5857 15.7615 16.3494 16.332 15.9288 16.7526C15.5081 17.1732 14.9377 17.4095 14.3428 17.4095L3.87616 17.4095C3.28131 17.4095 2.71083 17.1732 2.29022 16.7526C1.8696 16.332 1.6333 15.7615 1.6333 15.1667L1.6333 13.6715C1.6333 13.4732 1.55453 13.283 1.41433 13.1428C1.27412 13.0026 1.08396 12.9238 0.88568 12.9238C0.687399 12.9238 0.49724 13.0026 0.357034 13.1428C0.216828 13.283 0.138061 13.4732 0.138061 13.6715L0.138061 15.1667C0.139249 16.1577 0.533464 17.1078 1.23424 17.8086C1.93501 18.5094 2.88512 18.9036 3.87616 18.9048L14.3428 18.9048C15.3339 18.9036 16.284 18.5094 16.9847 17.8086C17.6855 17.1078 18.0797 16.1577 18.0809 15.1667L18.0809 13.6715C18.0809 13.4732 18.0022 13.283 17.8619 13.1428C17.7217 13.0026 17.5316 12.9238 17.3333 12.9238C17.135 12.9238 16.9449 13.0026 16.8047 13.1428C16.6644 13.283 16.5857 13.4732 16.5857 13.6715Z" fill="#8846ff"/>
<path d="M8.36197 1.70965L8.38589 13.5048C8.2641 13.4393 8.1519 13.3573 8.05245 13.2611L5.15244 10.3611C5.08347 10.2897 5.00098 10.2327 4.90976 10.1936C4.81855 10.1544 4.72045 10.1338 4.62118 10.1329C4.52191 10.132 4.42347 10.1509 4.33159 10.1885C4.23971 10.2261 4.15623 10.2816 4.08604 10.3518C4.01584 10.422 3.96033 10.5055 3.92274 10.5974C3.88515 10.6893 3.86623 10.7877 3.86709 10.887C3.86796 10.9862 3.88858 11.0843 3.92776 11.1756C3.96694 11.2668 4.0239 11.3493 4.0953 11.4182L6.99532 14.3197C7.55612 14.8804 8.31662 15.1953 9.10959 15.1953C9.90255 15.1953 10.6631 14.8804 11.2239 14.3197L14.1239 11.4197C14.1953 11.3508 14.2522 11.2683 14.2914 11.1771C14.3306 11.0858 14.3512 10.9877 14.3521 10.8885C14.3529 10.7892 14.334 10.6908 14.2964 10.5989C14.2588 10.507 14.2033 10.4235 14.1331 10.3533C14.0629 10.2831 13.9795 10.2276 13.8876 10.19C13.7957 10.1524 13.6973 10.1335 13.598 10.1344C13.4987 10.1352 13.4006 10.1559 13.3094 10.1951C13.2182 10.2342 13.1357 10.2912 13.0667 10.3626L10.1667 13.2626C10.0806 13.3463 9.98468 13.4193 9.88113 13.4802L9.8572 1.70965C9.8572 1.51137 9.77844 1.32121 9.63823 1.181C9.49803 1.0408 9.30787 0.962031 9.10959 0.962031C8.9113 0.962031 8.72114 1.0408 8.58094 1.181C8.44073 1.32121 8.36197 1.51137 8.36197 1.70965Z" fill="#8846ff"/>
</g>
<defs fill="#490A3D">
<clipPath id="clip0_3_170" fill="#490A3D">
<rect width="17.9429" height="17.9429" fill="#8846ff" transform="translate(0.138062 18.9048) rotate(-90)"/>
</clipPath>
</defs>
</svg>